PathFileType	4	(X/Y/Z)	jog.trc
DataRate	CameraRate	NumFrames	NumMarkers	Units	OrigDataRate	OrigDataStartFrame	OrigNumFrames
250.000000	250.000000	4	51	mm	250.000000	732	837
Frame#	Time	C7			RSH			LSH			MAN			T7			LARM			LELB			LFOREARM			LWR			RARM			RELB			RFOREARM			RWR			RASI			LASI			SACR			P1			P2			P3			LTHLP			LTHLD			LTHAP			LTHAD			LLEPI			LPAT			LTIAP			LTIAD			LTILAT			LLMAL			LHEEL			LMFS			LMFL			LP1MT			LTOE			LP5MT			RTHLP			RTHLD			RTHAP			RTHAD			RLEPI			RPAT			RTIAP			RTIAD			RTILAT			RLMAL			RHEEL			RMFS			RMFL			RP1MT			RTOE			RP5MT			
		X1	Y1	Z1	X2	Y2	Z2	X3	Y3	Z3	X4	Y4	Z4	X5	Y5	Z5	X6	Y6	Z6	X7	Y7	Z7	X8	Y8	Z8	X9	Y9	Z9	X10	Y10	Z10	X11	Y11	Z11	X12	Y12	Z12	X13	Y13	Z13	X14	Y14	Z14	X15	Y15	Z15	X16	Y16	Z16	X17	Y17	Z17	X18	Y18	Z18	X19	Y19	Z19	X20	Y20	Z20	X21	Y21	Z21	X22	Y22	Z22	X23	Y23	Z23	X24	Y24	Z24	X25	Y25	Z25	X26	Y26	Z26	X27	Y27	Z27	X28	Y28	Z28	X29	Y29	Z29	X30	Y30	Z30	X31	Y31	Z31	X32	Y32	Z32	X33	Y33	Z33	X34	Y34	Z34	X35	Y35	Z35	X36	Y36	Z36	X37	Y37	Z37	X38	Y38	Z38	X39	Y39	Z39	X40	Y40	Z40	X41	Y41	Z41	X42	Y42	Z42	X43	Y43	Z43	X44	Y44	Z44	X45	Y45	Z45	X46	Y46	Z46	X47	Y47	Z47	X48	Y48	Z48	X49	Y49	Z49	X50	Y50	Z50	X51	Y51	Z51	

733	2.928	4889.380371093752	1473.010498046875	223.2320709228517	4914.447753906252	1453.441528320313	397.1033630371096	4915.728515625002	1445.940795898438	58.79299163818362	5024.922363281252	1362.79052734375	234.9458007812501	4807.519531250002	1292.589599609375	227.5073089599611	4879.153808593752	1255.78955078125	-40.34031677246095	4854.606445312502	1125.965454101563	-80.58716583251956	4979.906250000002	1060.712524414063	-45.04420089721681	5087.048828125002	998.5593872070317	-13.16282081604005	4815.009765625002	1302.272583007813	487.3393249511721	4737.329101562502	1198.11181640625	531.7570800781252	4824.953125000002	1082.337646484375	532.9721679687502	4900.840820312502	972.9931640625005	519.2940063476565	4986.173339843752	998.9702758789067	332.6983642578126	4957.778320312502	998.417846679688	120.6026458740235	4789.826660156252	1034.181518554688	257.9508666992189	4770.660644531252	1008.8046875	206.7434692382814	4781.549804687502	1003.180358886719	311.7305297851564	4745.854492187502	949.760864257813	259.5576477050782	4880.098144531252	691.0521240234377	66.99502563476565	4894.228515625002	579.4880371093752	86.44490051269534	5011.048828125002	693.8536376953127	135.4908752441407	5004.639648437502	582.8061523437502	149.3899383544922	4903.142089843752	458.8240966796877	111.5416641235352	4988.228027343752	457.0682373046877	174.2811126708985	4844.041503906252	304.2896118164064	201.7220764160157	4758.659667968752	192.3675537109376	212.0671386718751	4776.260253906252	259.7673645019532	129.0044403076172	4658.594726562502	81.62616729736331	164.9693908691407	4581.776367187502	69.4493103027344	207.5777893066407	4745.565429687502	61.67295074462893	224.7352294921876	4717.183105468752	37.4296340942383	162.3575897216797	4792.780273437502	13.98286247253419	264.836883544922	4839.975585937502	18.04952430725098	232.5358886718751	4772.961914062502	-2.85105061531067	138.334701538086	4994.431152343752	744.9089965820315	431.0037231445315	5061.520019531252	654.7080078125002	421.2615966796877	5103.096191406252	770.4479370117192	336.7418212890626	5150.520019531252	686.813659667969	333.057586669922	5115.161621093752	525.7476196289065	382.3103637695314	5198.158691406252	512.2678222656252	326.7814025878907	4946.495605468752	429.014099121094	288.4454956054689	4823.294921875002	403.4185791015627	270.3565368652345	4913.335937500002	462.4710388183596	368.0516662597657	4697.374511718752	393.0956726074221	323.6480712890626	4642.687500000002	440.5372619628909	268.1082763671876	4727.869140625002	288.4270324707032	290.4065246582032	4683.684082031252	323.7800292968751	340.3274230957032	4700.267089843752	212.381317138672	259.0875854492189	4724.755371093752	195.9035644531251	300.7798767089845	4673.539062500002	249.5584106445314	375.5964965820314	
734	2.932	4903.125000000002	1475.672485351563	223.1149139404298	4927.181640625002	1456.482299804688	397.0523376464846	4930.088378906252	1448.942138671875	59.10601425170901	5038.721679687502	1365.96923828125	235.8188629150392	4821.637207031252	1294.939819335938	227.0237274169923	4895.646972656252	1258.504760742188	-40.23941040039064	4872.714843750002	1128.348999023438	-80.149528503418	5000.047363281252	1067.481689453125	-43.33063125610353	5108.903808593752	1009.3349609375	-10.18752479553223	4825.277343750002	1306.941650390625	486.7761230468752	4746.112792968752	1203.728271484375	530.7747802734377	4831.390136718752	1086.230590820313	532.922302246094	4905.484863281252	975.531616210938	519.9212036132815	5000.497558593752	1001.940856933594	332.5147094726564	4971.624023437502	999.9353027343755	120.4411621093751	4804.324218750002	1037.213989257813	258.1269531250001	4785.035644531252	1011.588256835938	206.995086669922	4795.970214843752	1006.169860839844	312.0393371582032	4759.734863281252	952.1225585937505	260.6731262207032	4889.127929687502	693.4934082031252	67.31655120849612	4900.748046875002	581.6365966796877	86.67829895019534	5019.382324218752	693.920104980469	137.2346801757813	5010.537597656252	582.6431884765627	150.5137481689454	4906.428222656252	460.4988098144534	111.6852340698243	4991.147460937502	457.1715087890627	174.8014831542969	4846.556640625002	306.2889709472657	201.7660217285157	4760.246582031252	194.6218872070314	212.0144805908204	4778.221191406252	261.9523315429689	128.9813995361329	4659.603515625002	83.9843444824219	164.6474761962891	4582.954589843752	73.1603927612305	207.123016357422	4747.219238281252	62.77661895751956	224.3278045654298	4717.765136718752	38.5605812072754	162.2203521728516	4792.774902343752	13.98674488067628	264.8958740234376	4839.707519531252	18.04222488403321	232.6531982421876	4772.938964843752	-2.658652305603028	138.4568023681641	5009.817382812502	749.4105224609377	431.7468566894534	5078.328613281252	660.111022949219	422.3149719238284	5118.829589843752	776.3084106445317	338.185760498047	5167.484375000002	693.4888916015627	334.6509094238282	5134.247070312502	531.6319580078127	383.3258056640626	5217.973144531252	519.9780883789065	328.1640014648439	4968.591796875002	429.9539184570315	288.6738281250001	4846.280273437502	400.6174926757815	269.967498779297	4933.263183593752	462.2109985351565	367.9163208007814	4720.212402343752	386.342468261719	322.7363891601564	4664.427246093752	432.1868896484377	267.216033935547	4754.067382812502	282.7598266601564	289.3568115234376	4708.760253906252	316.6466064453126	339.2294006347657	4729.301269531252	206.0539093017579	257.719696044922	4753.981933593752	190.2557983398438	299.5518493652345	4700.528320312502	241.788055419922	374.2218017578126	
735	2.936	4916.816894531252	1478.510620117188	223.0232086181642	4939.728515625002	1459.753784179688	397.0069580078127	4944.466796875002	1452.137084960938	59.39843750000003	5052.457031250002	1369.191040039063	236.7306365966798	4835.928710937502	1297.407958984375	226.5965118408204	4911.998046875002	1261.371337890625	-40.11607742309572	4890.665039062502	1130.940551757813	-79.68413543701175	5019.673828125002	1074.296264648438	-41.6934051513672	5130.212890625002	1020.40625	-7.237669944763187	4835.943359375002	1311.842163085938	486.1934509277346	4754.909179687502	1209.572631835938	529.7263183593752	4838.025390625002	1090.521240234375	532.806823730469	4910.389648437502	978.557006835938	520.429382324219	5014.604492187502	1005.0966796875	332.2547302246095	4986.166503906252	1001.912780761719	120.4352951049805	4818.817871093752	1040.129272460938	258.3226318359376	4799.570800781252	1014.577270507813	207.1438446044923	4810.315429687502	1009.379028320313	312.341766357422	4777.342773437502	955.5541992187505	259.666717529297	4898.444824218752	696.2105712890627	67.66139984130862	4907.545898437502	584.0691528320315	86.86017608642581	5027.872558593752	694.2600708007815	139.142074584961	5016.514160156252	582.703796386719	151.9321594238282	4909.745605468752	462.5767822265627	111.8460083007813	4994.240722656252	457.8193664550784	175.3822326660157	4847.994140625002	308.5330505371095	201.701873779297	4761.770019531252	197.1912078857423	211.7611694335939	4780.287109375002	264.6118164062501	129.0028533935547	4660.991210937502	86.84410095214847	164.2649383544922	4584.452636718752	77.17008972167972	206.6118316650392	4748.499023437502	63.87084960937503	224.0971984863282	4718.442871093752	39.75866699218751	162.1504669189454	4792.783691406252	14.01341724395753	264.9221496582032	4839.623535156252	18.07964134216309	232.8049163818361	4772.920898437502	-2.435293912887574	138.5787200927735	5025.582519531252	754.0596923828127	432.7122192382815	5095.099121093752	665.490905761719	423.3093872070315	5134.568847656252	782.1362915039067	339.5641479492189	5184.378906250002	700.0003051757815	336.3359680175782	5153.732910156252	537.5112915039065	384.517761230469	5237.320312500002	527.5429687500002	329.5415344238282	4990.616699218752	430.661560058594	288.831268310547	4869.327636718752	397.7238464355471	269.5877685546876	4958.786132812502	462.4989929199221	368.6094970703126	4743.291992187502	379.4517211914064	322.2481689453126	4686.272949218752	423.707946777344	266.306854248047	4780.495605468752	277.0765686035157	288.2758789062501	4734.058105468752	309.3578186035157	338.0422668457032	4758.337890625002	199.6095733642579	256.5386047363282	4783.169433593752	184.6358795166016	298.2269897460939	4728.122070312502	234.173553466797	372.8771972656251	
736	2.94	4930.546386718752	1481.473510742188	222.8968200683595	4952.338867187502	1463.1435546875	396.8714294433596	4958.814453125002	1455.42626953125	59.77769851684573	5066.177246093752	1372.65673828125	237.6515655517579	4850.119140625002	1299.981567382813	226.1115112304689	4928.272949218752	1264.424682617188	-39.97409057617189	4908.182617187502	1133.5849609375	-79.121452331543	5038.979980468752	1081.376708984375	-39.95814895629884	5151.041015625002	1031.75927734375	-4.352492809295656	4846.360839843752	1316.8330078125	485.6291809082034	4763.740234375002	1215.490844726563	528.5962524414065	4844.820800781252	1095.085083007813	532.5948486328127	4915.444335937502	981.9125976562505	520.7984008789065	5029.054687500002	1008.289978027344	332.1079406738282	5000.944824218752	1004.179260253907	120.5304107666016	4833.604492187502	1043.254150390625	258.5684814453126	4814.340332031252	1017.619262695313	207.3848419189454	4825.072265625002	1012.636962890625	312.6237182617189	4791.792480468752	958.8604125976567	260.0193176269532	4908.015136718752	699.0620117187502	68.01992034912112	4914.477539062502	586.759704589844	87.08797454833987	5036.449218750002	694.8294067382815	141.1285095214844	5022.471191406252	583.1483154296877	153.487533569336	4913.554687500002	465.1533203125002	112.0968627929688	4997.264160156252	458.896667480469	175.940170288086	4849.942871093752	311.070526123047	201.611053466797	4766.006835937502	200.4912719726564	211.5855560302736	4782.436523437502	267.6407470703126	128.9967956542969	4662.496093750002	89.93714904785159	163.8458862304688	4586.123046875002	81.62095642089847	206.0333251953126	4749.708496093752	64.91480255126956	223.8694610595704	4719.540039062502	41.25331497192384	161.9637298583985	4794.080078125002	14.33807277679444	264.8883361816407	4839.454101562502	18.07384681701661	232.9670867919923	4772.954589843752	-2.080801010131837	138.6776428222657	5041.335449218752	758.706726074219	433.6397094726565	5111.647949218752	670.846130371094	424.2652587890627	5150.270507812502	787.9248046875005	340.9027099609376	5201.157714843752	706.400817871094	338.0486450195314	5172.089355468752	543.279235839844	385.4709167480471	5256.380859375002	534.9661254882815	330.9501953125001	5012.423828125002	431.3215637207034	288.969207763672	4892.684570312502	394.764587402344	269.0839233398439	4977.474121093752	462.680114746094	368.8169250488282	4766.396972656252	372.3742980957032	321.2744445800782	4708.370605468752	414.9646606445315	265.3960876464845	4807.560546875002	271.5034179687501	287.4031677246095	4759.587890625002	301.7793884277345	336.7434997558595	4788.686035156252	193.371551513672	255.2270660400392	4812.358398437502	178.9263305664063	296.8679504394532	4755.794921875002	226.4725799560548	371.4017944335939	
